<svg xmlns="http://www.w3.org/2000/svg" viewBox="0 0 800 500" role="img">
  <title>Findmap — bảng danh sách điểm bán</title>
  <defs>
    <linearGradient id="bg3" x1="0" y1="0" x2="1" y2="1">
      <stop offset="0%" stop-color="#f7f9fc"/>
      <stop offset="100%" stop-color="#eef2ff"/>
    </linearGradient>
    <filter id="sh3" x="-8%" y="-8%" width="120%" height="130%">
      <feDropShadow dx="0" dy="8" stdDeviation="14" flood-color="#2b59ff" flood-opacity="0.1"/>
    </filter>
  </defs>
  <rect width="800" height="500" rx="24" fill="url(#bg3)"/>
  <rect x="40" y="36" width="720" height="428" rx="14" fill="#ffffff" filter="url(#sh3)"/>
  <rect x="40" y="36" width="720" height="56" rx="14" fill="#ffffff"/>
  <rect x="40" y="76" width="720" height="16" fill="#ffffff"/>
  <text x="64" y="70" font-family="Arial, Helvetica, sans-serif" font-size="16" font-weight="800" fill="#0f172a">Danh sách điểm bán</text>
  <rect x="548" y="52" width="96" height="28" rx="8" fill="#eef2ff" stroke="#c7d2fe"/>
  <text x="562" y="70" font-family="Arial, Helvetica, sans-serif" font-size="11" font-weight="700" fill="#2b59ff">Xuất Excel</text>
  <rect x="652" y="52" width="84" height="28" rx="8" fill="#2b59ff"/>
  <text x="672" y="70" font-family="Arial, Helvetica, sans-serif" font-size="11" font-weight="700" fill="#ffffff">Gửi đi</text>
  <rect x="56" y="108" width="688" height="40" rx="8" fill="#f1f5f9"/>
  <text x="76" y="133" font-family="Arial, Helvetica, sans-serif" font-size="12" font-weight="700" fill="#64748b">STT</text>
  <text x="120" y="133" font-family="Arial, Helvetica, sans-serif" font-size="12" font-weight="700" fill="#64748b">Tên điểm bán</text>
  <text x="340" y="133" font-family="Arial, Helvetica, sans-serif" font-size="12" font-weight="700" fill="#64748b">Địa chỉ</text>
  <text x="520" y="133" font-family="Arial, Helvetica, sans-serif" font-size="12" font-weight="700" fill="#64748b">Số điện thoại</text>
  <text x="660" y="133" font-family="Arial, Helvetica, sans-serif" font-size="12" font-weight="700" fill="#64748b">Trạng thái</text>
  <g font-family="Arial, Helvetica, sans-serif" font-size="13" fill="#0f172a">
    <text x="80" y="188">1</text>
    <text x="120" y="188" font-weight="600">Cà phê Highlands</text>
    <text x="340" y="188" fill="#64748b">Quận 1, TP.HCM</text>
    <text x="520" y="188">0901 234 567</text>
    <rect x="660" y="172" width="64" height="22" rx="11" fill="#dcfce7"/>
    <text x="672" y="187" font-size="11" font-weight="700" fill="#166534">Có SĐT</text>
    <line x1="56" y1="210" x2="744" y2="210" stroke="#f1f5f9"/>
    <text x="80" y="242">2</text>
    <text x="120" y="242" font-weight="600">Nhà thuốc An Khang</text>
    <text x="340" y="242" fill="#64748b">Thanh Xuân, Hà Nội</text>
    <text x="520" y="242">0987 501 771</text>
    <rect x="660" y="226" width="64" height="22" rx="11" fill="#dcfce7"/>
    <text x="672" y="241" font-size="11" font-weight="700" fill="#166534">Có SĐT</text>
    <line x1="56" y1="264" x2="744" y2="264" stroke="#f1f5f9"/>
    <text x="80" y="296">3</text>
    <text x="120" y="296" font-weight="600">Siêu thị mini 24h</text>
    <text x="340" y="296" fill="#64748b">Cầu Giấy, Hà Nội</text>
    <text x="520" y="296" fill="#94a3b8">—</text>
    <rect x="656" y="280" width="80" height="22" rx="11" fill="#fef3c7"/>
    <text x="666" y="295" font-size="11" font-weight="700" fill="#92400e">Thiếu SĐT</text>
    <line x1="56" y1="318" x2="744" y2="318" stroke="#f1f5f9"/>
    <text x="80" y="350">4</text>
    <text x="120" y="350" font-weight="600">Spa Beauty Center</text>
    <text x="340" y="350" fill="#64748b">Đống Đa, Hà Nội</text>
    <text x="520" y="350">0912 345 678</text>
    <rect x="660" y="334" width="64" height="22" rx="11" fill="#dcfce7"/>
    <text x="672" y="349" font-size="11" font-weight="700" fill="#166534">Có SĐT</text>
  </g>
  <text x="56" y="420" font-family="Arial, Helvetica, sans-serif" font-size="12" fill="#64748b">Hiển thị 4 / 128 điểm — Credit trừ theo điểm có SĐT</text>
</svg>
