<svg xmlns="http://www.w3.org/2000/svg" viewBox="0 0 800 500" role="img">
  <title>Findmap — tiến độ quét hiển thị ngay trên Google Maps</title>
  <defs>
    <linearGradient id="bg2" x1="0" y1="0" x2="1" y2="1">
      <stop offset="0%" stop-color="#f8fafc"/>
      <stop offset="100%" stop-color="#eef2ff"/>
    </linearGradient>
    <filter id="sh2" x="-8%" y="-8%" width="120%" height="130%">
      <feDropShadow dx="0" dy="8" stdDeviation="14" flood-color="#0f172a" flood-opacity="0.1"/>
    </filter>
  </defs>
  <rect width="800" height="500" rx="24" fill="url(#bg2)"/>
  <rect x="40" y="36" width="720" height="428" rx="14" fill="#ffffff" filter="url(#sh2)"/>
  <rect x="40" y="36" width="720" height="44" fill="#f1f5f9"/>
  <circle cx="66" cy="58" r="5" fill="#cbd5e1"/>
  <circle cx="84" cy="58" r="5" fill="#cbd5e1"/>
  <circle cx="102" cy="58" r="5" fill="#cbd5e1"/>
  <rect x="130" y="48" width="480" height="20" rx="10" fill="#ffffff" stroke="#e2e8f0"/>
  <text x="148" y="62" font-family="Arial, Helvetica, sans-serif" font-size="11" fill="#64748b">maps.google.com</text>
  <rect x="40" y="80" width="500" height="384" fill="#e0f2fe"/>
  <path d="M60 140 H520 M60 220 H520 M60 300 H520 M60 380 H520" stroke="#bae6fd" stroke-width="10"/>
  <path d="M140 90 V450 M260 90 V450 M380 90 V450" stroke="#bae6fd" stroke-width="8"/>
  <circle cx="280" cy="260" r="90" fill="#2b59ff" fill-opacity="0.1" stroke="#2b59ff" stroke-width="2"/>
  <g fill="#ef4444">
    <path d="M240 210c0-12 10-22 22-22s22 10 22 22c0 16-22 36-22 36s-22-20-22-36z"/>
    <path d="M300 280c0-12 10-22 22-22s22 10 22 22c0 16-22 36-22 36s-22-20-22-36z"/>
    <path d="M210 290c0-12 10-22 22-22s22 10 22 22c0 16-22 36-22 36s-22-20-22-36z"/>
  </g>
  <rect x="560" y="80" width="200" height="384" fill="#ffffff" stroke="#e2e8f0"/>
  <rect x="560" y="80" width="200" height="52" fill="#2b59ff"/>
  <text x="580" y="112" font-family="Arial, Helvetica, sans-serif" font-size="14" font-weight="700" fill="#ffffff">Tiến độ trên Maps</text>
  <text x="580" y="160" font-family="Arial, Helvetica, sans-serif" font-size="12" font-weight="600" fill="#0f172a">Đang thu thập...</text>
  <rect x="580" y="178" width="160" height="8" rx="4" fill="#e2e8f0"/>
  <rect x="580" y="178" width="108" height="8" rx="4" fill="#2cc981"/>
  <text x="580" y="220" font-family="Arial, Helvetica, sans-serif" font-size="11" fill="#64748b">Đã thu thập</text>
  <text x="580" y="248" font-family="Arial, Helvetica, sans-serif" font-size="28" font-weight="800" fill="#2b59ff">128</text>
  <text x="640" y="248" font-family="Arial, Helvetica, sans-serif" font-size="12" fill="#64748b">điểm bán</text>
  <rect x="580" y="280" width="160" height="44" rx="8" fill="#eef2ff" stroke="#c7d2fe"/>
  <text x="596" y="307" font-family="Arial, Helvetica, sans-serif" font-size="12" font-weight="600" fill="#2b59ff">Giữ tab Maps mở</text>
  <rect x="580" y="340" width="160" height="36" rx="8" fill="#2cc981"/>
  <text x="594" y="363" font-family="Arial, Helvetica, sans-serif" font-size="12" font-weight="700" fill="#ffffff">Đồng bộ về Findmap</text>
</svg>
