<svg width="11410" height="3846" viewBox="0 0 11410 3846" fill="none" xmlns="http://www.w3.org/2000/svg">
<path d="M4068.21 3158V2382.95H4562.35V2499.5H4206.79V2728.85H4531.74V2841.64H4206.79V3158H4068.21ZM4708.66 3158V2588.66H4842.4V3158H4708.66ZM4775.26 2507.02C4754.5 2507.02 4736.95 2499.86 4722.63 2485.54C4708.3 2471.22 4701.14 2454.03 4701.14 2433.98C4701.14 2413.57 4708.3 2396.38 4722.63 2382.41C4736.95 2368.09 4754.5 2360.93 4775.26 2360.93C4796.39 2360.93 4814.11 2368.09 4828.44 2382.41C4842.76 2396.38 4849.92 2413.57 4849.92 2433.98C4849.92 2454.03 4842.76 2471.22 4828.44 2485.54C4814.11 2499.86 4796.39 2507.02 4775.26 2507.02ZM5011.27 3158V2588.66H5144.47V2677.82H5147.7C5162.38 2647.03 5184.22 2622.5 5213.22 2604.24C5242.58 2585.98 5278.75 2576.85 5321.72 2576.85C5384.38 2576.85 5432.72 2595.83 5466.74 2633.78C5501.11 2671.74 5518.3 2723.66 5518.3 2789.54V3158H5384.56V2816.4C5384.56 2775.94 5375.07 2744.78 5356.09 2722.94C5337.12 2700.74 5308.65 2689.64 5270.69 2689.64C5245.27 2689.64 5223.07 2695.55 5204.09 2707.37C5185.11 2718.82 5170.43 2734.94 5160.05 2755.71C5149.66 2776.12 5144.47 2800.11 5144.47 2827.68V3158H5011.27ZM5892.34 3169.28C5844.36 3169.28 5802.65 3157.46 5767.2 3133.83C5732.11 3109.84 5704.89 3075.64 5685.56 3031.24C5666.58 2986.84 5657.09 2934.2 5657.09 2873.33V2872.79C5657.09 2811.56 5666.76 2758.93 5686.09 2714.88C5705.43 2670.48 5732.64 2636.47 5767.73 2612.83C5802.83 2588.84 5844.18 2576.85 5891.81 2576.85C5919.02 2576.85 5943.91 2581.32 5966.46 2590.28C5989.38 2598.87 6009.61 2611.4 6027.16 2627.87C6044.7 2643.99 6058.85 2663.5 6069.59 2686.42H6072.81V2382.95H6206.02V3158H6072.81V3061.32H6069.59C6059.21 3083.88 6045.24 3103.21 6027.7 3119.33C6010.51 3135.08 5990.46 3147.44 5967.54 3156.39C5944.98 3164.98 5919.92 3169.28 5892.34 3169.28ZM5932.63 3057.02C5960.2 3057.02 5984.55 3049.5 6005.67 3034.46C6026.8 3019.43 6043.27 2998.12 6055.09 2970.55C6066.9 2942.98 6072.81 2910.57 6072.81 2873.33V2872.79C6072.81 2835.56 6066.73 2803.33 6054.55 2776.12C6042.73 2748.54 6026.26 2727.24 6005.14 2712.2C5984.37 2697.16 5960.2 2689.64 5932.63 2689.64C5903.98 2689.64 5879.1 2697.16 5857.97 2712.2C5837.2 2726.88 5821.09 2747.83 5809.63 2775.04C5798.53 2802.25 5792.98 2834.84 5792.98 2872.79V2873.33C5792.98 2910.93 5798.53 2943.51 5809.63 2971.09C5821.09 2998.66 5837.2 3019.96 5857.97 3035C5879.1 3049.68 5903.98 3057.02 5932.63 3057.02ZM6650.1 3158V2588.66H6783.3V2679.97H6786.52C6798.34 2648.82 6818.21 2623.93 6846.14 2605.31C6874.07 2586.34 6906.84 2576.85 6944.43 2576.85C6970.93 2576.85 6994.74 2581.5 7015.87 2590.81C7037 2599.76 7054.9 2612.83 7069.58 2630.02C7084.62 2646.85 7095.54 2667.44 7102.34 2691.79H7105.03C7114.34 2668.16 7127.59 2647.93 7144.78 2631.1C7162.32 2613.91 7182.73 2600.66 7206.01 2591.35C7229.64 2581.68 7255.06 2576.85 7282.28 2576.85C7319.87 2576.85 7352.46 2584.9 7380.03 2601.02C7407.96 2616.77 7429.62 2638.97 7445.02 2667.62C7460.77 2695.91 7468.65 2729.21 7468.65 2767.52V3158H7334.91V2800.29C7334.91 2776.65 7330.97 2756.6 7323.1 2740.13C7315.22 2723.66 7303.76 2711.12 7288.72 2702.53C7273.68 2693.94 7255.06 2689.64 7232.86 2689.64C7211.38 2689.64 7192.4 2694.65 7175.93 2704.68C7159.81 2714.35 7147.1 2727.95 7137.79 2745.5C7128.84 2763.05 7124.37 2783.28 7124.37 2806.19V3158H6994.38V2793.3C6994.38 2771.82 6990.27 2753.38 6982.03 2737.98C6973.8 2722.58 6962.16 2710.77 6947.12 2702.53C6932.08 2693.94 6914.18 2689.64 6893.41 2689.64C6871.92 2689.64 6852.95 2694.83 6836.47 2705.22C6820 2715.6 6806.93 2729.74 6797.27 2747.65C6787.96 2765.55 6783.3 2786.14 6783.3 2809.42V3158H6650.1ZM7799.19 3167.67C7761.59 3167.67 7728.29 3160.51 7699.29 3146.18C7670.64 3131.5 7648.26 3111.27 7632.15 3085.49C7616.39 3059.35 7608.52 3029.45 7608.52 2995.79V2994.72C7608.52 2960.7 7616.93 2931.7 7633.76 2907.71C7650.95 2883.36 7675.65 2864.2 7707.88 2850.24C7740.11 2835.91 7779.14 2827.32 7824.97 2824.46L8042.5 2811.03V2899.65L7843.77 2912C7810.83 2914.15 7785.58 2922.03 7768.04 2935.64C7750.49 2949.24 7741.72 2967.33 7741.72 2989.88V2990.42C7741.72 3013.7 7750.49 3032.14 7768.04 3045.74C7785.94 3058.99 7809.57 3065.62 7838.94 3065.62C7864.72 3065.62 7887.63 3060.43 7907.69 3050.04C7928.1 3039.66 7944.21 3025.51 7956.03 3007.61C7967.84 2989.71 7973.75 2969.47 7973.75 2946.92V2776.12C7973.75 2747.47 7964.62 2724.91 7946.36 2708.44C7928.45 2691.61 7902.49 2683.2 7868.48 2683.2C7836.97 2683.2 7811.72 2690 7792.74 2703.61C7773.77 2716.85 7761.95 2734.04 7757.29 2755.17L7756.22 2760H7632.69L7633.22 2753.56C7636.09 2719.9 7647.37 2689.82 7667.06 2663.32C7686.75 2636.47 7713.97 2615.34 7748.7 2599.94C7783.79 2584.55 7825.33 2576.85 7873.31 2576.85C7920.93 2576.85 7962.11 2584.73 7996.85 2600.48C8031.94 2616.24 8058.97 2638.26 8077.95 2666.54C8097.29 2694.83 8106.95 2728.13 8106.95 2766.45V3158H7973.75V3070.45H7970.53C7959.79 3090.15 7945.82 3107.33 7928.63 3122.01C7911.45 3136.69 7891.75 3147.97 7869.55 3155.85C7847.71 3163.73 7824.25 3167.67 7799.19 3167.67ZM8270.45 3345.99V2588.66H8403.65V2686.96H8406.88C8417.98 2664.04 8431.94 2644.52 8448.77 2628.41C8465.96 2611.94 8485.83 2599.23 8508.39 2590.28C8531.31 2581.32 8556.19 2576.85 8583.05 2576.85C8631.39 2576.85 8673.1 2588.84 8708.19 2612.83C8743.64 2636.47 8770.86 2670.48 8789.83 2714.88C8809.17 2759.29 8818.84 2812.1 8818.84 2873.33V2873.87C8818.84 2934.74 8809.17 2987.38 8789.83 3031.78C8770.86 3075.82 8743.82 3109.84 8708.73 3133.83C8674 3157.46 8632.82 3169.28 8585.2 3169.28C8558.34 3169.28 8533.27 3164.98 8510 3156.39C8487.08 3147.79 8466.85 3135.44 8449.31 3119.33C8431.76 3103.21 8417.62 3084.06 8406.88 3061.86H8403.65V3345.99H8270.45ZM8543.84 3057.02C8572.48 3057.02 8597.19 3049.5 8617.96 3034.46C8638.73 3019.43 8654.66 2998.3 8665.76 2971.09C8677.22 2943.51 8682.95 2911.11 8682.95 2873.87V2873.33C8682.95 2835.02 8677.22 2802.25 8665.76 2775.04C8654.66 2747.47 8638.55 2726.34 8617.42 2711.66C8596.65 2696.98 8572.13 2689.64 8543.84 2689.64C8516.27 2689.64 8491.92 2697.16 8470.79 2712.2C8449.66 2727.24 8433.01 2748.54 8420.84 2776.12C8409.02 2803.33 8403.12 2835.73 8403.12 2873.33V2873.87C8403.12 2911.11 8409.02 2943.51 8420.84 2971.09C8433.01 2998.3 8449.66 3019.43 8470.79 3034.46C8491.92 3049.5 8516.27 3057.02 8543.84 3057.02Z" fill="black"/>
<path d="M4506.98 1805.31C4405.9 1805.31 4318.01 1783.09 4243.31 1738.66C4169.09 1694.23 4111.71 1631.24 4071.19 1549.7C4031.15 1467.66 4011.13 1370.5 4011.13 1258.19V1257.46C4011.13 1145.15 4031.39 1048.23 4071.92 966.688C4112.45 885.145 4169.82 822.4 4244.04 778.455C4318.26 734.021 4405.9 711.805 4506.98 711.805C4588.03 711.805 4660.54 727.43 4724.51 758.68C4788.96 789.93 4841.45 833.143 4881.98 888.318C4922.51 943.494 4947.41 1006.97 4956.69 1078.75L4957.42 1086.07H4772.12L4768.45 1072.16C4758.2 1031.63 4741.35 996.717 4717.92 967.42C4694.48 938.123 4664.94 915.418 4629.29 899.305C4593.65 883.191 4552.88 875.135 4506.98 875.135C4445.46 875.135 4391.99 890.76 4346.58 922.01C4301.17 953.26 4266.01 997.449 4241.11 1054.58C4216.21 1111.22 4203.76 1178.85 4203.76 1257.46V1258.19C4203.76 1336.32 4216.21 1404.19 4241.11 1461.8C4266.01 1518.93 4301.17 1563.37 4346.58 1595.11C4392.48 1626.36 4445.94 1641.98 4506.98 1641.98C4551.9 1641.98 4591.94 1634.17 4627.1 1618.54C4662.74 1602.43 4692.77 1579.24 4717.18 1548.96C4741.6 1518.69 4759.42 1481.82 4770.65 1438.37L4772.85 1431.04H4958.15L4956.69 1439.1C4947.9 1510.88 4923.24 1574.35 4882.71 1629.53C4842.18 1684.71 4789.69 1727.92 4725.24 1759.17C4660.79 1789.93 4588.03 1805.31 4506.98 1805.31ZM5103.52 1787V730.115H5285.89V1141H5289.56C5310.06 1094.13 5340.58 1058 5381.11 1032.61C5422.12 1007.21 5471.44 994.52 5529.06 994.52C5585.21 994.52 5633.79 1007.46 5674.81 1033.34C5715.83 1058.73 5747.56 1094.62 5770.03 1141C5792.49 1186.9 5803.72 1241.1 5803.72 1303.6V1787H5621.34V1339.49C5621.34 1279.92 5606.94 1233.29 5578.13 1199.6C5549.32 1165.42 5508.79 1148.33 5456.55 1148.33C5422.37 1148.33 5392.34 1156.63 5366.46 1173.23C5341.07 1189.34 5321.29 1211.8 5307.13 1240.61C5292.97 1268.93 5285.89 1301.89 5285.89 1339.49V1787H5103.52ZM6195.18 1800.18C6143.91 1800.18 6098.5 1790.42 6058.95 1770.89C6019.89 1750.87 5989.37 1723.28 5967.4 1688.12C5945.91 1652.48 5935.17 1611.71 5935.17 1565.81V1564.34C5935.17 1517.96 5946.65 1478.41 5969.6 1445.69C5993.03 1412.49 6026.72 1386.37 6070.67 1367.32C6114.62 1347.79 6167.84 1336.07 6230.34 1332.17L6526.97 1313.86V1434.71L6255.97 1451.55C6211.05 1454.48 6176.63 1465.22 6152.7 1483.78C6128.78 1502.33 6116.81 1526.99 6116.81 1557.75V1558.48C6116.81 1590.22 6128.78 1615.37 6152.7 1633.92C6177.12 1651.99 6209.34 1661.02 6249.38 1661.02C6284.54 1661.02 6315.79 1653.94 6343.13 1639.78C6370.96 1625.62 6392.94 1606.34 6409.05 1581.92C6425.16 1557.51 6433.22 1529.92 6433.22 1499.16V1266.25C6433.22 1227.19 6420.77 1196.42 6395.87 1173.96C6371.45 1151.01 6336.05 1139.54 6289.66 1139.54C6246.7 1139.54 6212.27 1148.82 6186.39 1167.37C6160.51 1185.44 6144.4 1208.88 6138.05 1237.68L6136.59 1244.28H5968.13L5968.86 1235.49C5972.77 1189.59 5988.15 1148.57 6015.01 1112.44C6041.86 1075.82 6078.97 1047.01 6126.33 1026.01C6174.19 1005.02 6230.83 994.52 6296.26 994.52C6361.2 994.52 6417.35 1005.26 6464.71 1026.75C6512.56 1048.23 6549.43 1078.26 6575.31 1116.83C6601.68 1155.41 6614.86 1200.82 6614.86 1253.06V1787H6433.22V1667.62H6428.82C6414.18 1694.47 6395.13 1717.91 6371.7 1737.93C6348.26 1757.95 6321.4 1773.33 6291.13 1784.07C6261.34 1794.81 6229.36 1800.18 6195.18 1800.18ZM7065.65 1802.38C6985.08 1802.38 6925.03 1784.8 6885.47 1749.65C6846.41 1714.49 6826.88 1656.87 6826.88 1576.79V1151.26H6717.02V1010.63H6826.88V813.611H7012.18V1010.63H7156.47V1151.26H7012.18V1562.15C7012.18 1599.74 7020.48 1625.87 7037.09 1640.52C7054.18 1654.68 7079.08 1661.76 7111.79 1661.76C7121.07 1661.76 7129.13 1661.51 7135.96 1661.02C7143.29 1660.05 7150.12 1659.31 7156.47 1658.83V1795.79C7145.73 1797.25 7132.54 1798.72 7116.92 1800.18C7101.78 1801.65 7084.69 1802.38 7065.65 1802.38ZM7409.51 1437.63V1285.29H7675.38C7743.74 1285.29 7796.47 1267.96 7833.58 1233.29C7871.18 1198.13 7889.98 1148.82 7889.98 1085.34V1083.88C7889.98 1019.91 7871.18 970.594 7833.58 935.926C7796.47 901.258 7743.74 883.924 7675.38 883.924H7409.51V730.115H7722.25C7793.54 730.115 7856.04 744.764 7909.75 774.061C7963.95 803.357 8006.19 844.617 8036.46 897.84C8066.73 950.574 8081.87 1012.34 8081.87 1083.14V1084.61C8081.87 1154.92 8066.73 1216.69 8036.46 1269.91C8006.19 1322.64 7963.95 1363.9 7909.75 1393.69C7856.04 1422.99 7793.54 1437.63 7722.25 1437.63H7409.51ZM7315.03 1787V730.115H7503.99V1787H7315.03ZM8222.12 1787V730.115H8404.49V1787H8222.12ZM8839.17 1802.38C8782.04 1802.38 8733.45 1790.91 8693.41 1767.96C8653.86 1744.52 8623.59 1711.07 8602.59 1667.62C8581.6 1624.16 8571.1 1572.64 8571.1 1513.07V1010.63H8752.74V1476.45C8752.74 1531.63 8765.68 1574.35 8791.56 1604.63C8817.44 1634.41 8856.5 1649.3 8908.75 1649.3C8934.62 1649.3 8958.06 1644.91 8979.06 1636.12C9000.54 1626.84 9018.85 1613.9 9033.99 1597.3C9049.13 1580.7 9060.6 1560.93 9068.41 1537.98C9076.23 1514.54 9080.13 1488.66 9080.13 1460.34V1010.63H9262.51V1787H9080.13V1665.42H9076.47C9062.8 1692.76 9044.98 1716.93 9023 1737.93C9001.03 1758.44 8974.66 1774.3 8943.9 1785.54C8913.14 1796.77 8878.23 1802.38 8839.17 1802.38ZM9730.88 1802.38C9663 1802.38 9604.9 1792.37 9556.56 1772.35C9508.71 1752.33 9471.11 1724.26 9443.77 1688.12C9416.91 1651.5 9400.55 1609.27 9394.69 1561.41L9393.96 1554.82H9573.4L9574.87 1561.41C9581.71 1595.11 9597.82 1621.23 9623.21 1639.78C9649.09 1658.34 9685.22 1667.62 9731.61 1667.62C9761.39 1667.62 9786.78 1663.95 9807.78 1656.63C9828.78 1649.3 9844.89 1638.56 9856.12 1624.4C9867.84 1610.24 9873.7 1593.64 9873.7 1574.6V1573.87C9873.7 1550.92 9865.88 1532.36 9850.26 1518.2C9834.63 1503.55 9806.56 1491.59 9766.03 1482.31L9637.12 1453.75C9587.81 1442.52 9546.55 1427.14 9513.35 1407.61C9480.14 1388.07 9455.24 1363.9 9438.64 1335.1C9422.04 1305.8 9413.74 1271.86 9413.74 1233.29V1232.56C9413.74 1185.19 9426.68 1143.69 9452.55 1108.04C9478.43 1072.4 9514.81 1044.57 9561.69 1024.55C9608.56 1004.53 9663 994.52 9725.02 994.52C9789.47 994.52 9844.64 1005.26 9890.54 1026.75C9936.44 1048.23 9971.84 1077.04 9996.74 1113.17C10022.1 1149.3 10035.8 1189.83 10037.8 1234.75L10038.5 1242.81H9868.57L9867.84 1236.95C9863.93 1205.7 9849.77 1180.07 9825.36 1160.05C9800.94 1139.54 9767.5 1129.29 9725.02 1129.29C9698.16 1129.29 9674.72 1133.19 9654.7 1141C9635.17 1148.82 9620.04 1159.8 9609.29 1173.96C9599.04 1188.12 9593.91 1204.72 9593.91 1223.77V1224.5C9593.91 1239.15 9597.57 1252.33 9604.9 1264.05C9612.22 1275.77 9623.94 1286.02 9640.05 1294.81C9656.17 1303.11 9677.65 1310.44 9704.51 1316.79L9833.41 1345.35C9913.98 1363.42 9971.35 1389.29 10005.5 1422.99C10039.7 1456.19 10056.8 1500.87 10056.8 1557.02V1557.75C10056.8 1606.58 10042.9 1649.55 10015.1 1686.66C9987.22 1723.28 9948.65 1751.84 9899.33 1772.35C9850.5 1792.37 9794.35 1802.38 9730.88 1802.38Z" fill="black"/>
<path d="M1803.96 5.45122C1596.31 16.8504 1369.82 70.3769 1169.6 156.119C952.035 248.8 757.762 378.652 587.774 544.684C438.601 690.892 338.987 820.744 238.877 998.671C80.7827 1281.17 -8.91959 1650.41 1.48786 1975.04C10.4085 2246.64 71.862 2503.37 185.353 2742.75C244.328 2867.15 334.031 3010.88 423.237 3122.4C482.708 3196.74 636.342 3352.36 708.699 3410.85C968.885 3621.98 1258.31 3755.8 1583.42 3815.77C1770.75 3850.46 1992.78 3854.92 2185.56 3828.16C2425.43 3794.95 2667.28 3713.17 2872.46 3595.22C2941.34 3556.06 3021.13 3503.03 3085.07 3454.46C3138.59 3414.32 3230.27 3336.5 3247.12 3317.17C3255.55 3307.76 3250.1 3302.31 3073.67 3126.86C2876.42 2930.59 2866.51 2922.66 2797.13 2906.31C2752.52 2895.9 2684.13 2898.87 2647.46 2913.25C2632.59 2918.7 2590.96 2941.5 2554.78 2963.8C2247.02 3150.15 1874.83 3192.28 1538.82 3077.79C1352.47 3014.35 1192.89 2913.74 1055.61 2771.99C987.717 2702.61 955.008 2662.46 905.449 2586.63C803.357 2432 735.956 2247.13 714.15 2061.77C705.725 1989.41 707.708 1826.85 718.115 1756.97C758.754 1483.88 881.165 1246.48 1081.88 1052.69C1265.25 875.262 1483.81 764.243 1737.05 720.133C1809.41 707.743 2026.48 707.743 2106.27 720.133C2265.85 745.905 2415.52 800.423 2553.29 883.687C2633.09 931.762 2663.81 942.666 2722.79 942.17C2787.71 942.17 2827.36 930.275 2879.39 895.582C2904.17 879.227 3246.13 540.719 3246.13 532.789C3246.13 529.816 3224.33 508.504 3198.06 485.21C2866.01 193.29 2466.07 29.2407 2026.98 4.95542C1930.83 -0.496385 1908.03 -0.496202 1803.96 5.45122Z" fill="#2B59FF"/>
<path d="M1972.7 2536.27C1634.85 2536.27 1359.87 2261.3 1359.87 1923.45C1359.87 1585.6 1634.85 1310.63 1972.7 1310.63C2310.56 1310.63 2585.54 1585.6 2585.54 1923.45C2585.54 2261.3 2310.56 2536.27 1972.7 2536.27ZM1972.7 1694.58C1846.53 1694.58 1743.83 1797.28 1743.83 1923.45C1743.83 2049.62 1846.53 2152.31 1972.7 2152.31C2098.87 2152.31 2201.57 2049.62 2201.57 1923.45C2201.57 1797.28 2098.87 1694.58 1972.7 1694.58Z" fill="#2CC981"/>
</svg>
